<svg width="25" height="25" viewBox="0 0 25 25" fill="none" xmlns="http://www.w3.org/2000/svg">
<path d="M7.35236 5.86257C7.35209 6.39301 7.14112 6.90161 6.76586 7.27649C6.3906 7.65138 5.88179 7.86184 5.35136 7.86157C4.82092 7.86131 4.31232 7.65034 3.93744 7.27508C3.56255 6.89982 3.35209 6.39101 3.35236 5.86057C3.35262 5.33014 3.56359 4.82154 3.93885 4.44665C4.31411 4.07177 4.82292 3.86131 5.35336 3.86157C5.88379 3.86184 6.39239 4.07281 6.76728 4.44807C7.14216 4.82333 7.35262 5.33214 7.35236 5.86257ZM7.41236 9.34257H3.41236V21.8626H7.41236V9.34257ZM13.7324 9.34257H9.75236V21.8626H13.6924V15.2926C13.6924 11.6326 18.4624 11.2926 18.4624 15.2926V21.8626H22.4124V13.9326C22.4124 7.76257 15.3524 7.99257 13.6924 11.0226L13.7324 9.34257Z" fill="black"/>
</svg>

