<svg width="25" height="25" viewBox="0 0 25 25" fill="none" xmlns="http://www.w3.org/2000/svg">
<path d="M23.1472 6.86255C22.3772 7.21255 21.5472 7.44255 20.6872 7.55255C21.5672 7.02255 22.2472 6.18255 22.5672 5.17255C21.7372 5.67255 20.8172 6.02255 19.8472 6.22255C19.0572 5.36255 17.9472 4.86255 16.6872 4.86255C14.3372 4.86255 12.4172 6.78255 12.4172 9.15255C12.4172 9.49255 12.4572 9.82255 12.5272 10.1325C8.96723 9.95255 5.79723 8.24255 3.68723 5.65255C3.31723 6.28255 3.10723 7.02255 3.10723 7.80255C3.10723 9.29255 3.85723 10.6125 5.01723 11.3625C4.30723 11.3625 3.64723 11.1625 3.06723 10.8625V10.8925C3.06723 12.9725 4.54723 14.7125 6.50723 15.1025C5.87796 15.2748 5.21733 15.2987 4.57723 15.1725C4.84884 16.025 5.38077 16.771 6.09825 17.3055C6.81573 17.84 7.68268 18.1362 8.57723 18.1525C7.06086 19.353 5.18123 20.0019 3.24723 19.9925C2.90723 19.9925 2.56723 19.9725 2.22723 19.9325C4.12723 21.1525 6.38723 21.8625 8.80723 21.8625C16.6872 21.8625 21.0172 15.3225 21.0172 9.65255C21.0172 9.46255 21.0172 9.28255 21.0072 9.09255C21.8472 8.49255 22.5672 7.73255 23.1472 6.86255Z" fill="black"/>
</svg>
